# xmcd
#
# Track frame offsets:
# 150
# 12812
# 26522
# 39330
# 52655
# 65727
# 77987
# 93572
# 105042
# 117820
# 130725
# 141410
# 154475
# 167772
# 182065
#
# Disc length: 2608 seconds
#
#
# Revision: 3
# Processed by: cddbd v1.5.2PL0 Copyright (c) Steve Scherf et al.
# Submitted via: FreeRIP 2.96 
#
DISCID=bc0a2e0f
DTITLE=Tex Ritter - Vintage Collections
DYEAR=1900
DGENRE=Country
TTITLE0=Jingle! Jangle! Jingle!
TTITLE1=There's A New Moon Over My Shoulder
TTITLE2=I'm Wastin' My Tears On You
TTITLE3=Jealous Heart
TTITLE4=You Will Have To Pay (For Your Yesterday)
TTITLE5=You Two-Timed Me One Time Too Often
TTITLE6=The Pony Express
TTITLE7=Have I Told You Lately That I Love You
TTITLE8=I Was Out Of My Mind
TTITLE9=Trouble In Mind
TTITLE10=Waitin' And A' Worryin'
TTITLE11=Pecos Bill
TTITLE12=When You Leave Don't Slam The Door
TTITLE13=I Dreamed Of A Hillbilly Heaven
TTITLE14=High Noon (Do Not Forsake Me)
EXTD=
EXTT0=
EXTT1=
EXTT2=
EXTT3=
EXTT4=
EXTT5=
EXTT6=
EXTT7=
EXTT8=
EXTT9=
EXTT10=
EXTT11=
EXTT12=
EXTT13=
EXTT14=
PLAYORDER=
